<?xml version="1.0" encoding="UTF-8"?>
<svg id="Layer_1" data-name="Layer 1" xmlns="http://www.w3.org/2000/svg" viewBox="0 0 562 452">
  <defs>
    <style>
      .cls-1 {
        fill: #000;
      }

      .cls-2 {
        fill: #f57830;
      }
    </style>
  </defs>
  <path class="cls-2" d="M370,438.52l-90.47,11.27c-10.72,1.34-21.55-2.15-32.25-3.56l-138.42-18.28-104.67-14.11c-1.81-3.83-1.86-7.74.12-12.06h189.37s218.54.03,218.54.03l144.97-.09c2.78,3.63,2.47,8.21.62,12.31l-187.8,24.5Z"/>
  <g>
    <path class="cls-2" d="M406.82,124.81l-243.04.03c-7.34-7.3-9.46-17.52-9.54-27.85-.11-15.02,6.56-28.78,17.03-38.15,11.18-10.01,26.76-12.97,41.74-10.87,7.71-20.65,24.57-36.76,44.12-42.74,24.13-7.39,48-1.98,66.35,13.5,14.75,12.44,22.79,30.02,24.9,48.92,2.76,1.21,5.15.76,7.78.78,17.41.13,34.05,7.38,43.95,21.72,6.88,9.97,9.99,21.67,6.71,34.66Z"/>
    <g>
      <path class="cls-1" d="M459.93,201.54c-4.96-5.05-9.18-18.81-12.43-19.71-1.75-.48-4.98-1.1-5.48,1.03-1.42,6.12,1.21,12.65-1.08,18.3-1.57,2.33-7.45,1.47-10.04-.02l-.18-51.76c13.16-.18,34.54-4.6,38.21,11.36,1.9,8.27-1.15,15.57-9.14,19.49l10.06,18.05c.53.96.96,3.59-.46,3.79-2.21.31-7.38,1.57-9.46-.54ZM458.21,167.42c.39-2.93.28-6.18-2.94-7.56s-9.82-2.66-12.66-.65c-2.05,3.9-.49,9.4-.38,13.44,5.42.8,15.16.79,15.97-5.23Z"/>
      <path class="cls-1" d="M171.22,203.16c-9.52.33-17.3-4.29-20.9-12.56-3.77-8.68-3.94-18.45-1.3-27.49,2.58-8.83,9.76-13.94,18.74-14.94,10.44-1.17,20.01,3.76,23.8,13.89,3.11,8.31,3.06,17.81.29,26.22-3,9.08-10.49,14.53-20.63,14.88ZM181.74,184.5c1.88-6.79,1.44-14.18-1.44-20.1-2.23-4.59-6.53-6.72-11.04-6.41-12.4.86-12.53,19.08-9.23,27.55,1.95,5.01,6.4,7.77,11.16,7.66s9.01-3.13,10.55-8.7Z"/>
      <path class="cls-1" d="M292.95,167.1c2.29,15.27-1.89,32.34-18.51,34.71-6.59.94-12.89.61-19.44.57-1.77,0-3.18-1.75-3.17-3.55l.16-49.47c8.25-.53,16.31-1.24,24.04.22,9.05,1.71,15.6,8.73,16.92,17.52ZM279.14,188.18c5.34-7.65,5.13-19.27-.69-25.95-3.89-4.47-10.49-4.12-15.75-3.31v33.23c5.15,1.46,12.65,1.47,16.44-3.97Z"/>
      <path class="cls-1" d="M231.96,150.35c1.91-2.51,7.99-1.82,11.2-.39l-.32,34.16c-.11,12.16-9.79,19.3-21.26,19.15-10.29-.14-19.88-6.1-19.88-17.3v-35.71c2.58-2.33,7.36-1.65,10.64-.56l.73,36.9c.11,5.59,6.29,7.35,10.82,6.62,4.81-.78,7.75-4.78,7.79-10.21l.27-32.64Z"/>
      <path class="cls-1" d="M415.6,201.86c-2.77-2.04-2.06-6.54-4.04-9.56-6.14-.86-12.65-.45-19.13-.35-2.05,2.67-1.3,6.47-3.46,8.95s-7.06,2.24-10.52.41l16.8-51.55c4.01-1.51,8.21-1.29,12.56-.09l17.33,48.42c.43,1.21.44,3.47-.97,3.88-2.18.64-6.21,1.62-8.56-.11ZM408.26,181.57c-2.32-6.49-3-12.41-6.61-17.97-2.87,6.34-4.93,12-5.79,18.35,4.73.82,8.6,1.24,12.4-.38Z"/>
      <path class="cls-1" d="M507.02,179.12c-6.11,2.02-12.53-.12-18.61,1.02-.61,4.06-.96,8.48.39,12.36l22.32.91c1.86,1.25,1.3,5.95.65,8.48-11.31.7-21.96.53-34.4.28v-52.8s33.48-.11,33.48-.11c1.99,1.65,2.01,7.47.03,8.69l-22.4,1.04c-.79,3.95-1.01,8.06.38,11.46l17.89.92c1.92.55,2.14,7.15.26,7.77Z"/>
      <path class="cls-1" d="M81.3,192.35c13.26,4.82,12.9-8.19,20.44-4.52,2.34,1.14,2.84,4.01,1.36,6.61-3.53,6.2-10.3,8.61-17.2,8.83-11.01.35-20.07-5.96-22.65-16.75-2.29-9.55-2.14-19.78,2.91-28.47,4.55-7.81,13.66-10.88,22.56-9.7,6.54.87,13.57,4.7,15.12,11.82.65,2.97-6.13,5.76-7.93,3.85-3.69-3.89-7.15-6.58-12.46-5.95-11.34,1.33-12.1,16.52-9.83,25.01,1.19,4.45,4.3,8.05,7.69,9.28Z"/>
      <path class="cls-1" d="M330.19,171.41c2.33.1,1.27,6.16.77,8.52l-18.6,1.02-1.05,20.09c-1.51,2.35-6.94,1.69-9.79.64l-.26-49.72c0-1.73,1.66-3.04,3.23-3.03l30.57.2c.94,2.72,1.37,7.08-.35,9.14l-22.19.73c-1.01,3.84-1,7.98.29,11.62l17.38.78Z"/>
      <path class="cls-1" d="M142.62,193.42c2.7.14,2.51,8.29-.86,8.61-10.08.96-19.66.52-30.04.08l.13-51.85c2.45-2.15,8.32-2.19,10.6-.02l.57,42.2,19.59.99Z"/>
      <path class="cls-1" d="M352.59,190.01c.02,5.57,13.15,1.4,21.54,3.55,2.14.55,1.63,7.74-.7,8.02-10.48,1.26-20.42.93-31.13.46l-.14-52.69c3.89-.68,6.66-.64,10.3-.04l.13,40.69Z"/>
    </g>
    <g>
      <path class="cls-1" d="M555.4,381.03l-30.27.05c-2.38,0-4.18-1.74-4.18-4.13l-.16-54.48c-.01-3.37-2.72-4.75-5.65-4.75l-41.03.06c-2.01,0-3.91,1.09-3.93,3.31l-.34,54.87c-.01,1.77-.45,3.22-1.44,4-2.43,1.93-29.5,1.23-34.78.63-2.34-1.47-1.55-5.95-1.55-8.73l-.45-142.72c0-3.1,1.05-5.53,4.48-5.57l27.89-.32c2.27-.03,5.73,1.42,5.75,4.04l.37,51.75c.02,2.77,2.4,4.12,4.98,4.13l40.05.25c3.3.02,5.83-2.07,5.81-5.51l-.35-50.55c-.02-2.24,2.21-3.72,4.36-3.72l30.05.06c2.35,0,3.97,1.93,3.97,4.4l.13,148.67c0,2.09-1.28,4.22-3.7,4.23Z"/>
      <path class="cls-1" d="M104.24,353.01c-.94-2.9-2.74-3.94-5.4-3.94l-41.95-.08c-3.32,0-5.06,1.06-6.09,4.07l-9.42,27.62c-11.31.99-22.1.07-33.41.49-1.67.06-3.3-.55-3.99-1.59-.58-.88-1.13-2.76-.6-4.3l22.04-63.93,30.16-87.31,41.32-.44c2.14-.02,3.57,1.39,4.46,3.02l21.35,61.21,29.71,87.41c.57,1.68-.07,3.41-.68,4.34-.72,1.11-2.29,1.57-4,1.56l-30.88-.05c-2.33,0-3.94-1.28-4.63-3.4l-8-24.68ZM90.28,316.76c2.46,0,4.08-2.77,3.41-4.73l-12.45-36.67c-.72-2.11-1.87-3.25-3.83-3.1-1.5.12-2.57,1.01-3.17,2.86l-11.73,36.39c-.48,1.48-.03,3,.52,3.75.77,1.03,2.19,1.59,3.78,1.58l23.46-.08Z"/>
      <path class="cls-1" d="M246.05,223.73l30.57-.12c1.84,0,4.04,1.52,4.03,3.63l-.37,99.63c-.09,24.69-17.04,45.49-40.3,52.42-15.35,4.57-31.23,4.67-46.42-.22-22.54-7.26-38.34-27.13-38.54-51.25l-.82-99.77c-.02-2.73,1.95-4.42,4.43-4.42l31.01.04c2.35,0,3.28,2.18,3.29,4.35l.33,96.2c.04,12.53,8.48,21.22,20.47,23.03,14.35,2.17,28.23-7.3,28.32-22.97l.54-97.23c0-1.76,1.21-3.33,3.49-3.33Z"/>
      <path class="cls-1" d="M371.76,381.06h-30.3c-2.35.01-4.11-1.65-4.11-4.18l.11-114.8c0-2.87-1.47-4.61-4.21-4.62l-34.84-.16c-2.56-.01-4.35-1.74-4.27-4.31.27-8.45.09-16.57-.15-25.01-.08-2.82,1.74-4.35,4.57-4.35l117.56-.02c1.97,0,3.18,1.79,3.18,3.36v26.03c-.02,2.78-2.33,4.42-5.03,4.43l-34.78.03c-2.85,0-4.06,1.77-4.05,4.6l.26,114.84c0,2.09-1.63,4.16-3.94,4.16Z"/>
    </g>
  </g>
</svg>